<?xml version="1.0" encoding="iso-8859-1"?>
<!-- Generator: Adobe Illustrator 21.0.2, SVG Export Plug-In . SVG Version: 6.00 Build 0)  -->
<svg version="1.1" id="Layer_1" xmlns="http://www.w3.org/2000/svg" xmlns:xlink="http://www.w3.org/1999/xlink" x="0px" y="0px"
	 viewBox="0 0 206 146" style="enable-background:new 0 0 206 146;" xml:space="preserve">
<path style="fill:#FFFFFF;" d="M134.548,13.018c-10.871-15.703-25.246-7.078-29.929-1.749C99.935,5.94,85.56-2.685,74.689,13.018
	C71.941,16.987,59.548,39.17,42.237,32.85c4.688,16.681,14.54,24.022,30.583,23.5c19.022-0.619,29.681-20.807,31.798-28.07
	c2.117,7.262,12.776,27.451,31.798,28.07c16.043,0.522,25.895-6.819,30.583-23.5C149.689,39.17,137.296,16.987,134.548,13.018z"/>
<g>
	<path style="fill:#FFFFFF;" d="M23.281,115.049c0.526,0.196,1.07,0.293,1.632,0.289c0.561-0.002,1.131-0.1,1.709-0.289
		c0.579-0.189,1.13-0.467,1.653-0.833c0.324-0.226,0.624-0.489,0.897-0.788c0.274-0.299,0.489-0.616,0.644-0.952
		c0.153-0.336,0.225-0.687,0.21-1.053c-0.014-0.366-0.141-0.72-0.381-1.062c-0.227-0.325-0.5-0.563-0.821-0.714
		c-0.32-0.151-0.749-0.228-1.286-0.228c-0.537,0-1.201,0.068-1.991,0.204c-0.79,0.137-1.77,0.33-2.936,0.582
		c-1.561,0.34-3.051,0.301-4.47-0.117c-1.419-0.417-2.607-1.312-3.565-2.682c-0.756-1.082-1.222-2.151-1.397-3.21
		c-0.176-1.058-0.122-2.075,0.161-3.052c0.284-0.976,0.771-1.901,1.464-2.774c0.691-0.873,1.533-1.656,2.525-2.349
		c0.974-0.68,2.014-1.246,3.121-1.698c1.106-0.451,2.24-0.827,3.398-1.127c0.159,0.803,0.396,1.63,0.709,2.483
		c0.315,0.854,0.666,1.615,1.054,2.284l-1.082,0.756c-0.713-0.71-1.564-1.134-2.56-1.271c-0.995-0.137-1.979,0.135-2.953,0.815
		c-0.288,0.202-0.573,0.456-0.857,0.76c-0.283,0.306-0.511,0.633-0.684,0.981c-0.172,0.349-0.264,0.707-0.273,1.076
		c-0.011,0.37,0.11,0.735,0.363,1.096c0.239,0.343,0.534,0.572,0.885,0.69c0.35,0.118,0.748,0.169,1.192,0.152
		c0.446-0.015,0.948-0.084,1.507-0.207c0.559-0.123,1.157-0.246,1.795-0.37l2.726-0.536c1.574-0.321,2.931-0.223,4.071,0.294
		c1.141,0.519,2.164,1.427,3.072,2.725c0.794,1.136,1.291,2.251,1.492,3.345c0.201,1.094,0.156,2.145-0.132,3.152
		c-0.29,1.007-0.809,1.954-1.559,2.84c-0.749,0.887-1.656,1.701-2.72,2.445c-0.596,0.416-1.152,0.771-1.67,1.066
		c-0.519,0.295-1.033,0.568-1.543,0.817c-0.511,0.25-1.051,0.466-1.62,0.649c-0.57,0.184-1.194,0.365-1.874,0.545
		c-0.193-0.429-0.368-0.823-0.525-1.183c-0.157-0.359-0.325-0.725-0.504-1.097s-0.379-0.762-0.599-1.173
		c-0.22-0.41-0.488-0.879-0.805-1.41l1.109-0.775C22.283,114.553,22.755,114.854,23.281,115.049z"/>
	<path style="fill:#FFFFFF;" d="M41.443,109.034c-0.378,0.076-0.742,0.163-1.096,0.264c-0.353,0.101-0.71,0.233-1.069,0.397
		c-0.341,0.155-0.664,0.333-0.972,0.534s-0.583,0.405-0.827,0.613l-0.05-4.802c0.006-0.728-0.001-1.564-0.021-2.511
		c-0.021-0.946-0.051-1.953-0.092-3.023c-0.04-1.069-0.084-2.186-0.132-3.35c-0.047-1.163-0.094-2.326-0.141-3.49
		c-0.036-0.66-0.08-1.42-0.134-2.278c-0.053-0.858-0.111-1.703-0.176-2.531c-0.063-0.83-0.116-1.579-0.156-2.25
		c-0.04-0.671-0.064-1.149-0.074-1.436c0.377-0.074,0.757-0.169,1.14-0.284c0.384-0.114,0.745-0.249,1.085-0.404
		c0.36-0.164,0.71-0.353,1.047-0.568c0.338-0.214,0.658-0.439,0.962-0.675c0.549,0.62,1.215,1.338,1.998,2.153
		c0.783,0.816,1.614,1.67,2.493,2.562s1.768,1.781,2.667,2.665c0.898,0.884,1.738,1.704,2.519,2.459
		c0.904,0.87,1.709,1.639,2.413,2.309c0.705,0.669,1.374,1.302,2.008,1.895c0.634,0.594,1.285,1.186,1.952,1.775
		c0.669,0.59,1.418,1.239,2.249,1.948c-0.635,0.145-1.319,0.367-2.054,0.666s-1.402,0.585-2.002,0.859
		c-0.642,0.292-1.275,0.612-1.903,0.958c-0.627,0.347-1.242,0.707-1.847,1.079c-0.548-0.669-1.085-1.305-1.615-1.911
		c-0.53-0.604-1.085-1.197-1.664-1.779c-0.661,0.301-1.323,0.598-1.989,0.889c-0.664,0.292-1.328,0.588-1.988,0.889
		c-0.521,0.237-1.043,0.482-1.569,0.734c-0.525,0.252-1.049,0.497-1.569,0.734c0.039,0.829,0.124,1.648,0.252,2.46
		C41.216,107.396,41.334,108.212,41.443,109.034z M40.474,101.024c0.229-0.08,0.453-0.17,0.674-0.271
		c0.22-0.101,0.439-0.201,0.661-0.301l1.32-0.603l1.321-0.603c0.22-0.1,0.439-0.2,0.66-0.301c0.22-0.1,0.436-0.21,0.646-0.331
		l-5.773-5.817L40.474,101.024z"/>
	<path style="fill:#FFFFFF;" d="M74.438,90.743c-0.418,2.37-0.757,4.587-1.018,6.651c-0.267,0.015-0.527,0.033-0.781,0.056
		c-0.255,0.023-0.532,0.068-0.833,0.135c-0.236,0.053-0.484,0.125-0.745,0.217c-0.263,0.092-0.538,0.193-0.829,0.303
		c-0.867-1.362-1.776-2.681-2.726-3.956c-0.95-1.276-1.88-2.59-2.791-3.942c-0.566-0.82-1.148-1.608-1.745-2.366
		c-0.598-0.757-1.18-1.546-1.745-2.366c0.026,1.234,0.096,2.453,0.207,3.656c0.111,1.205,0.229,2.435,0.351,3.692
		c0.145,1.455,0.291,2.764,0.438,3.926c0.146,1.162,0.302,2.21,0.465,3.143c-0.687-0.05-1.374,0.002-2.062,0.156
		c-0.365,0.081-0.714,0.188-1.045,0.317c-0.331,0.131-0.67,0.28-1.016,0.447c0.065-1.728,0.077-3.438,0.038-5.131
		c-0.04-1.693-0.098-3.41-0.17-5.152c-0.057-1.97-0.176-4.018-0.357-6.142s-0.415-4.179-0.7-6.167l-0.191-1.31
		c0.518-0.002,1.028-0.038,1.532-0.105c0.503-0.067,1.001-0.155,1.496-0.266c0.536-0.12,1.036-0.254,1.499-0.402
		c0.462-0.148,0.939-0.333,1.431-0.556c0.318,0.515,0.699,1.111,1.144,1.791c0.444,0.678,0.926,1.394,1.443,2.146
		c0.517,0.752,1.061,1.522,1.631,2.307c0.569,0.786,1.13,1.551,1.679,2.296c0.55,0.746,1.086,1.455,1.608,2.127
		c0.521,0.673,0.987,1.268,1.396,1.785c0.463-2.47,0.934-4.981,1.412-7.534c0.478-2.553,0.862-5.044,1.153-7.477
		c0.496,0.002,0.985-0.028,1.468-0.091c0.481-0.062,0.97-0.149,1.464-0.26c0.493-0.11,0.995-0.239,1.503-0.386
		c0.508-0.147,0.994-0.34,1.46-0.579l1.314,4.068c0.271,0.818,0.597,1.766,0.973,2.842c0.375,1.078,0.767,2.202,1.175,3.373
		s0.837,2.36,1.287,3.567c0.45,1.208,0.88,2.352,1.29,3.431c0.41,1.081,0.805,2.064,1.183,2.948
		c0.378,0.885,0.707,1.601,0.986,2.147c-0.707,0.068-1.382,0.145-2.027,0.232s-1.301,0.206-1.967,0.354
		c-0.644,0.144-1.282,0.315-1.914,0.512c-0.632,0.198-1.25,0.409-1.854,0.634c-0.424-1.393-0.847-2.752-1.266-4.079
		c-0.421-1.326-0.864-2.681-1.33-4.065c-0.343-1.027-0.71-2.067-1.103-3.118s-0.739-1.948-1.041-2.692l-0.392,1.879
		C75.314,86.039,74.855,88.373,74.438,90.743z"/>
	<path style="fill:#FFFFFF;" d="M122.692,81.333c0.102,0.235,0.209,0.459,0.322,0.673c0.112,0.214,0.236,0.438,0.37,0.674
		c0.135,0.236,0.295,0.512,0.481,0.827c-0.602,0.748-1.252,1.521-1.953,2.321c-0.702,0.799-1.565,1.653-2.59,2.561l1.041,1.294
		c0.336,0.409,0.674,0.812,1.011,1.21c0.337,0.398,0.686,0.792,1.046,1.179c0.232,0.251,0.423,0.457,0.571,0.616
		c0.147,0.16,0.27,0.291,0.364,0.394c0.096,0.103,0.187,0.188,0.271,0.258c0.086,0.069,0.192,0.15,0.321,0.243l-0.028,0.758
		c-0.701-0.092-1.386-0.184-2.054-0.275c-0.669-0.091-1.288-0.147-1.859-0.169c-0.221-0.008-0.507-0.013-0.858-0.016
		c-0.353-0.001-0.716,0.006-1.091,0.025c-0.376,0.019-0.739,0.038-1.092,0.058c-0.354,0.02-0.651,0.047-0.895,0.082
		c-0.296-0.341-0.586-0.683-0.869-1.024c-0.285-0.341-0.575-0.692-0.869-1.056c-1.282,0.723-2.523,1.254-3.726,1.593
		c-1.201,0.34-2.551,0.482-4.045,0.426c-0.968-0.037-1.892-0.193-2.772-0.468c-0.882-0.274-1.647-0.689-2.298-1.242
		c-0.651-0.553-1.165-1.232-1.542-2.04c-0.377-0.807-0.546-1.727-0.507-2.76c0.035-0.945,0.248-1.774,0.639-2.486
		c0.39-0.712,0.882-1.342,1.475-1.893s1.266-1.036,2.02-1.46c0.753-0.422,1.5-0.807,2.24-1.153
		c-0.482-0.657-0.884-1.404-1.204-2.242c-0.321-0.837-0.466-1.664-0.436-2.477c0.033-0.879,0.249-1.653,0.648-2.32
		c0.399-0.667,0.927-1.22,1.582-1.658c0.654-0.438,1.399-0.762,2.232-0.973c0.834-0.211,1.712-0.299,2.636-0.264
		c0.703,0.026,1.437,0.131,2.2,0.313c0.764,0.184,1.452,0.468,2.064,0.854c0.614,0.386,1.111,0.9,1.495,1.542
		c0.382,0.642,0.557,1.424,0.522,2.348c-0.029,0.77-0.23,1.428-0.604,1.975c-0.372,0.548-0.803,1.005-1.289,1.372
		c-0.488,0.368-0.982,0.651-1.485,0.853c-0.503,0.202-0.899,0.352-1.189,0.45c0.291,0.452,0.631,0.943,1.018,1.475
		c0.388,0.532,0.791,1.07,1.211,1.614c0.419,0.544,0.84,1.078,1.261,1.599c0.421,0.523,0.799,0.988,1.136,1.397
		c1.171-1.276,2.046-2.438,2.625-3.484c0.579-1.045,0.955-1.852,1.131-2.417l0.989,0.036
		C122.48,80.813,122.591,81.098,122.692,81.333z M111.849,90.451c0.29-0.12,0.594-0.274,0.908-0.461
		c-0.23-0.294-0.604-0.771-1.118-1.429c-0.515-0.658-1.061-1.366-1.638-2.125c-0.577-0.759-1.132-1.5-1.666-2.226
		c-0.534-0.724-0.937-1.301-1.206-1.73c-0.454,0.358-0.81,0.724-1.065,1.1c-0.257,0.375-0.396,0.86-0.418,1.454
		c-0.024,0.638,0.101,1.281,0.373,1.929c0.272,0.649,0.636,1.241,1.089,1.775c0.454,0.535,0.981,0.973,1.586,1.315
		c0.604,0.341,1.235,0.525,1.895,0.55C111.137,90.623,111.557,90.573,111.849,90.451z M110.106,75.757
		c0.108,0.334,0.249,0.665,0.425,0.99c0.175,0.326,0.367,0.636,0.575,0.93c0.209,0.294,0.409,0.555,0.599,0.782
		c0.608-0.373,1.137-0.804,1.585-1.294c0.447-0.489,0.685-1.097,0.712-1.822c0.024-0.66-0.136-1.216-0.482-1.669
		c-0.346-0.453-0.87-0.693-1.574-0.72c-0.572-0.021-1.04,0.137-1.405,0.476c-0.364,0.338-0.559,0.794-0.579,1.365
		C109.949,75.102,109.998,75.423,110.106,75.757z"/>
	<path style="fill:#FFFFFF;" d="M144.296,96.662c-0.276,0.871-0.65,1.637-1.12,2.298c-0.471,0.661-1.073,1.235-1.805,1.725
		c-0.732,0.489-1.695,0.836-2.888,1.045c-0.572,0.099-1.122,0.153-1.647,0.162c-0.525,0.008-1.069-0.022-1.632-0.09
		c-0.562-0.069-1.144-0.172-1.745-0.308c-0.601-0.137-1.253-0.297-1.953-0.483c0.099-0.201,0.187-0.406,0.264-0.612
		c0.078-0.208,0.145-0.417,0.201-0.63c0.106-0.404,0.163-0.788,0.167-1.15c0.404,0.106,0.813,0.192,1.229,0.257
		c0.415,0.063,0.828,0.031,1.238-0.1c0.41-0.131,0.799-0.397,1.167-0.801s0.681-1.002,0.938-1.8
		c0.128-0.398,0.283-0.898,0.465-1.499c0.181-0.601,0.36-1.212,0.537-1.837s0.345-1.217,0.505-1.778
		c0.159-0.561,0.284-1.011,0.374-1.352c0.681-2.573,1.325-5.14,1.935-7.698c0.608-2.558,1.168-5.147,1.679-7.765
		c0.657,0.265,1.31,0.511,1.954,0.738c0.646,0.228,1.309,0.432,1.989,0.611c0.681,0.18,1.33,0.33,1.947,0.447
		c0.617,0.118,1.27,0.211,1.957,0.279c-0.754,2.418-1.471,4.805-2.15,7.163c-0.682,2.357-1.345,4.759-1.992,7.205l-0.812,3.199
		C144.839,94.865,144.571,95.79,144.296,96.662z"/>
	<path style="fill:#FFFFFF;" d="M154.507,83.954c0.847-2.007,1.588-3.952,2.223-5.835c0.621,0.393,1.219,0.74,1.796,1.042
		c0.575,0.302,1.197,0.598,1.861,0.891c0.645,0.283,1.282,0.54,1.915,0.77c0.632,0.23,1.281,0.432,1.95,0.605
		c-0.293,0.448-0.617,1.008-0.973,1.681c-0.355,0.672-0.717,1.385-1.084,2.137c-0.367,0.752-0.73,1.511-1.091,2.277
		c-0.361,0.767-0.684,1.472-0.967,2.117l-0.89,2.024c-0.487,1.108-0.914,2.146-1.279,3.115c-0.366,0.968-0.563,1.867-0.591,2.696
		c-0.028,0.829,0.187,1.584,0.645,2.265c0.457,0.683,1.26,1.275,2.408,1.78c0.725,0.319,1.508,0.464,2.349,0.438
		s1.578-0.298,2.213-0.812c0.521-0.42,0.932-0.888,1.23-1.405c0.3-0.518,0.61-1.114,0.932-1.79c0.179-0.354,0.349-0.711,0.508-1.074
		c0.16-0.362,0.319-0.725,0.479-1.088l0.956-2.174c0.558-1.27,1.116-2.609,1.678-4.021c0.561-1.412,1.115-2.934,1.665-4.567
		c0.376,0.238,0.742,0.471,1.099,0.7c0.355,0.229,0.734,0.431,1.138,0.609c0.383,0.167,0.756,0.302,1.121,0.402
		c0.364,0.101,0.735,0.185,1.113,0.255c-0.468,0.899-0.966,1.882-1.494,2.948c-0.528,1.065-1.039,2.103-1.53,3.112
		c-0.492,1.009-0.94,1.947-1.346,2.815c-0.405,0.867-0.723,1.563-0.953,2.086c-0.398,0.906-0.777,1.713-1.136,2.421
		c-0.359,0.707-0.745,1.337-1.155,1.889c-0.411,0.552-0.865,1.038-1.361,1.456s-1.082,0.792-1.755,1.122
		c-1.357,0.628-2.796,0.879-4.313,0.752c-1.52-0.126-3.073-0.539-4.665-1.239c-3.263-1.435-5.379-3.235-6.348-5.404
		c-0.97-2.168-0.732-4.894,0.711-8.177C152.68,88.233,153.66,85.961,154.507,83.954z"/>
	<path style="fill:#FFFFFF;" d="M198.233,102.227c1.002,1.409,1.683,2.886,2.044,4.43c0.36,1.545,0.368,3.117,0.022,4.719
		c-0.346,1.602-1.11,3.183-2.294,4.742c-1.25,1.647-2.618,2.867-4.103,3.66c-1.486,0.792-3.021,1.223-4.604,1.291
		c-1.585,0.067-3.187-0.215-4.804-0.849c-1.618-0.634-3.189-1.53-4.714-2.687c-1.438-1.091-2.64-2.327-3.605-3.71
		c-0.967-1.383-1.623-2.848-1.968-4.394c-0.347-1.547-0.34-3.129,0.02-4.749s1.117-3.192,2.274-4.716
		c1.197-1.577,2.521-2.76,3.977-3.548c1.454-0.789,2.968-1.228,4.541-1.317c1.574-0.09,3.166,0.151,4.775,0.723
		c1.609,0.573,3.167,1.43,4.675,2.574C195.977,99.541,197.23,100.817,198.233,102.227z M183.582,116.565
		c0.642,0.101,1.271,0.073,1.885-0.082c0.615-0.155,1.218-0.422,1.81-0.802s1.149-0.806,1.674-1.277
		c0.524-0.473,1.017-0.976,1.478-1.51c0.46-0.534,0.87-1.038,1.229-1.511c0.571-0.753,1.139-1.601,1.7-2.541
		c0.562-0.941,0.973-1.899,1.23-2.877c0.259-0.977,0.28-1.934,0.066-2.871c-0.216-0.936-0.813-1.777-1.794-2.521
		c-0.93-0.705-1.855-1.041-2.776-1.009c-0.923,0.033-1.807,0.279-2.654,0.741c-0.848,0.461-1.64,1.069-2.377,1.821
		c-0.736,0.752-1.378,1.488-1.923,2.207c-0.412,0.543-0.835,1.126-1.267,1.751c-0.433,0.625-0.819,1.27-1.16,1.937
		s-0.614,1.336-0.819,2.008c-0.207,0.672-0.295,1.344-0.266,2.015c0.029,0.671,0.204,1.314,0.523,1.931
		c0.319,0.615,0.83,1.188,1.531,1.721C182.305,116.175,182.939,116.464,183.582,116.565z"/>
</g>
<g>
	<g>
		<path style="fill:#FFFFFF;" d="M57.461,127.002v5.053c0.247-0.475,0.608-0.893,1.045-1.178c0.741-0.513,1.596-0.607,2.204-0.607
			c1.482,0,2.394,0.532,2.926,1.063c1.235,1.197,1.349,3.078,1.349,4.008c0,2.014-0.57,3.401-1.387,4.218
			c-0.551,0.57-1.463,1.121-2.907,1.121c-1.045,0-1.786-0.304-2.28-0.665c-0.361-0.266-0.722-0.665-0.969-1.14h-0.038v1.425H56.15
			v-13.298H57.461z M58.506,138.913c0.532,0.532,1.178,0.817,2.014,0.817c1.007,0,1.672-0.418,2.052-0.836
			c0.722-0.779,1.045-2.166,1.045-3.496c0-1.767-0.513-2.85-1.14-3.438c-0.323-0.304-0.931-0.741-1.918-0.741
			c-1.007,0-1.691,0.437-2.09,0.855c-0.532,0.551-1.083,1.558-1.083,3.4C57.385,136.292,57.442,137.849,58.506,138.913z"/>
		<path style="fill:#FFFFFF;" d="M67.265,133.423c0.019-0.703,0.266-1.805,1.254-2.489c0.854-0.589,2.051-0.665,2.716-0.665
			c0.798,0,2.014,0.095,2.831,0.893c0.722,0.722,0.798,1.577,0.779,2.261l-0.114,4.806c0,0.304,0,0.665,0.19,0.893
			s0.532,0.323,0.874,0.228v0.95c-0.171,0.038-0.437,0.076-0.703,0.076c-0.304,0-0.779-0.019-1.121-0.361
			c-0.304-0.304-0.437-0.835-0.418-1.253c-0.38,0.626-0.874,1.026-1.254,1.235c-0.836,0.475-1.805,0.532-2.261,0.532
			c-0.741,0-1.691-0.114-2.375-0.779c-0.513-0.475-0.798-1.216-0.798-2.033c0-0.931,0.399-1.52,0.703-1.824
			c0.779-0.76,2.147-0.931,3.059-1.045l0.627-0.076c0.342-0.038,0.855-0.076,1.292-0.152c0.475-0.076,0.665-0.19,0.76-0.285
			c0.209-0.228,0.228-0.646,0.228-0.931c0-0.494-0.019-1.14-0.589-1.653c-0.513-0.456-1.216-0.532-1.824-0.532
			c-0.589,0-1.444,0.057-1.976,0.589c-0.399,0.399-0.589,1.064-0.608,1.615H67.265z M73.496,135.189
			c-0.247,0.228-0.456,0.266-0.76,0.323c-0.874,0.171-1.121,0.152-1.71,0.209l-0.38,0.038c-1.064,0.114-1.634,0.361-1.957,0.665
			c-0.209,0.209-0.456,0.627-0.456,1.311c0,0.532,0.228,1.007,0.494,1.292c0.456,0.494,1.044,0.551,1.52,0.551
			c1.045,0,1.672-0.342,2.071-0.665c0.741-0.608,1.102-1.672,1.14-2.736L73.496,135.189z"/>
		<path style="fill:#FFFFFF;" d="M83.072,131.523h-0.19c-1.197,0-1.938,0.266-2.565,0.912c-0.798,0.817-0.95,1.767-0.95,2.888v4.977
			h-1.311v-9.65h1.311v1.918h0.038c0.304-0.76,0.798-1.235,1.197-1.5c0.779-0.532,1.577-0.608,2.261-0.608h0.209V131.523z"/>
		<path style="fill:#FFFFFF;" d="M85.884,127.002v5.053c0.247-0.475,0.608-0.893,1.045-1.178c0.741-0.513,1.596-0.607,2.204-0.607
			c1.482,0,2.394,0.532,2.926,1.063c1.235,1.197,1.349,3.078,1.349,4.008c0,2.014-0.57,3.401-1.387,4.218
			c-0.551,0.57-1.463,1.121-2.907,1.121c-1.045,0-1.786-0.304-2.28-0.665c-0.361-0.266-0.722-0.665-0.969-1.14h-0.038v1.425h-1.253
			v-13.298H85.884z M86.929,138.913c0.532,0.532,1.178,0.817,2.014,0.817c1.007,0,1.672-0.418,2.052-0.836
			c0.722-0.779,1.045-2.166,1.045-3.496c0-1.767-0.513-2.85-1.14-3.438c-0.323-0.304-0.931-0.741-1.918-0.741
			c-1.007,0-1.691,0.437-2.09,0.855c-0.532,0.551-1.083,1.558-1.083,3.4C85.808,136.292,85.865,137.849,86.929,138.913z"/>
		<path style="fill:#FFFFFF;" d="M104.237,137.507c-0.171,0.836-0.57,1.558-1.045,2.052c-0.931,0.969-2.033,1.121-3.078,1.121
			c-1.007,0-2.204-0.095-3.268-1.121c-1.178-1.14-1.425-2.717-1.425-4.123c0-1.026,0.133-2.735,1.33-3.951
			c1.045-1.064,2.375-1.216,3.268-1.216c0.836,0,2.109,0.133,3.078,1.14c1.045,1.083,1.197,2.564,1.254,4.312H96.79
			c0.057,1.52,0.475,2.469,1.026,3.059c0.532,0.589,1.292,0.95,2.356,0.95c1.007,0,1.615-0.38,1.995-0.722
			c0.608-0.57,0.779-1.292,0.817-1.5H104.237z M102.964,134.771c0-0.779-0.285-2.108-0.931-2.773
			c-0.38-0.399-1.044-0.779-2.033-0.779c-1.083,0-1.861,0.418-2.317,0.931c-0.532,0.608-0.893,1.672-0.893,2.622H102.964z"/>
		<path style="fill:#FFFFFF;" d="M111.875,131.523h-0.19c-1.197,0-1.938,0.266-2.565,0.912c-0.798,0.817-0.95,1.767-0.95,2.888
			v4.977h-1.311v-9.65h1.311v1.918h0.038c0.304-0.76,0.798-1.235,1.197-1.5c0.779-0.532,1.577-0.608,2.261-0.608h0.209V131.523z"/>
		<path style="fill:#FFFFFF;" d="M113.966,137.488c0,0.779,0.361,1.311,0.665,1.596c0.361,0.342,1.007,0.646,2.09,0.646
			c0.969,0,1.501-0.266,1.805-0.513c0.399-0.323,0.646-0.893,0.646-1.5c0-0.418-0.152-0.817-0.513-1.121
			c-0.228-0.19-0.646-0.418-1.596-0.627l-1.063-0.228c-0.874-0.19-1.824-0.437-2.356-0.969c-0.399-0.399-0.646-1.007-0.646-1.671
			c0-0.912,0.456-1.767,1.197-2.261c0.779-0.513,1.824-0.57,2.394-0.57c0.722,0,1.995,0.114,2.85,0.95
			c0.399,0.38,0.798,1.026,0.817,1.938h-1.273c0-0.551-0.228-1.064-0.532-1.368c-0.399-0.38-1.064-0.57-1.881-0.57
			c-0.494,0-1.273,0.076-1.767,0.57c-0.209,0.209-0.437,0.589-0.437,1.178c0,0.418,0.133,0.779,0.494,1.102
			c0.418,0.361,1.007,0.513,1.539,0.627l1.007,0.228c0.798,0.19,1.671,0.38,2.261,0.835c0.494,0.38,0.854,0.969,0.854,1.843
			c0,1.045-0.494,1.919-1.14,2.394c-0.874,0.646-2.146,0.684-2.717,0.684c-1.671,0-2.603-0.513-3.096-1.026
			c-0.551-0.57-0.855-1.463-0.931-2.166H113.966z"/>
		<path style="fill:#FFFFFF;" d="M124.092,127.002v5.053c0.304-0.551,0.703-0.912,1.178-1.216c0.627-0.399,1.235-0.57,2.071-0.57
			c1.178,0,1.919,0.38,2.375,0.835c0.798,0.798,0.817,1.805,0.817,2.679v6.516h-1.311v-6.003c0-0.703,0.095-1.767-0.551-2.451
			c-0.323-0.342-0.874-0.627-1.577-0.627c-0.836,0-1.596,0.342-2.108,0.874c-0.855,0.912-0.893,1.995-0.893,2.812v5.395h-1.311
			v-13.298H124.092z"/>
		<path style="fill:#FFFFFF;" d="M134.504,131.39c0.988-0.95,2.185-1.121,3.153-1.121c0.988,0,2.166,0.171,3.154,1.121
			c1.102,1.064,1.462,2.735,1.462,4.084c0,1.216-0.266,2.982-1.539,4.141c-0.95,0.874-2.014,1.064-3.059,1.064
			s-2.185-0.19-3.115-1.064c-0.684-0.627-1.52-1.899-1.52-4.141C133.042,133.195,133.896,131.979,134.504,131.39z M135.587,138.989
			c0.665,0.608,1.425,0.741,2.071,0.741s1.425-0.133,2.052-0.722c0.684-0.627,1.178-1.805,1.178-3.552
			c0-1.178-0.247-2.527-1.007-3.363c-0.38-0.399-1.063-0.893-2.223-0.893c-1.007,0-1.709,0.38-2.146,0.798
			c-0.589,0.57-1.102,1.634-1.102,3.458S134.922,138.362,135.587,138.989z"/>
		<path style="fill:#FFFFFF;" d="M146.037,130.649v1.425h0.038c0.418-0.665,0.912-1.045,1.197-1.235
			c0.646-0.418,1.33-0.57,2.052-0.57c1.444,0,2.356,0.57,2.85,1.044c0.627,0.608,1.406,1.805,1.406,4.065
			c0,3.135-1.463,5.3-4.104,5.3c-0.835,0-1.577-0.19-2.146-0.532c-0.513-0.323-0.95-0.817-1.235-1.33v4.997h-1.311v-13.165H146.037z
			 M147.12,138.837c0.437,0.456,1.14,0.893,2.146,0.893c0.722,0,1.349-0.247,1.862-0.779c0.665-0.703,1.083-1.938,1.083-3.534
			c0-1.976-0.608-2.963-1.14-3.458c-0.361-0.342-0.988-0.741-1.938-0.741c-0.779,0-1.463,0.304-1.957,0.76
			c-1.045,0.969-1.159,2.527-1.159,3.534C146.018,136.443,146.17,137.849,147.12,138.837z"/>
	</g>
	<circle style="fill:#FFFFFF;" cx="162.368" cy="136.5" r="2.5"/>
	<circle style="fill:#FFFFFF;" cx="45.368" cy="135.5" r="2.5"/>
</g>
</svg>
